<svg xmlns="http://www.w3.org/2000/svg" x="0px" y="0px" viewBox="0 0 466.8 320" >
<style type="text/css">
	.focus-gradient-style{fill:url(#SVGID_1_);}
</style>
<linearGradient id="SVGID_1_" gradientUnits="userSpaceOnUse" x1="172.7654" y1="140.7349" x2="292.3708" y2="261.9639">
	<stop  offset="0" style="stop-color:#E50F6B"/>
	<stop  offset="8.626701e-02" style="stop-color:#E93E41"/>
	<stop  offset="0.1717" style="stop-color:#ED661E"/>
	<stop  offset="0.2394" style="stop-color:#EF7E08"/>
	<stop  offset="0.2809" style="stop-color:#F08700"/>
	<stop  offset="0.409" style="stop-color:#E78C03"/>
	<stop  offset="0.618" style="stop-color:#CF9B0B"/>
	<stop  offset="0.8803" style="stop-color:#A7B418"/>
	<stop  offset="1" style="stop-color:#93C01F"/>
</linearGradient>
<path class="focus-gradient-style" d="M411.7,114.1c16.1,0,29.6,12.7,29.6,28.7s-13.5,29.6-29.6,29.6s-29.6-12.7-29.6-28.7S395.6,114.1,411.7,114.1z
	 M165.6,71.9c0,38.6,31.3,70.9,70.9,70.9c38.6,0,70.9-31.3,70.9-70.9C307.3,33.3,276,1,236.4,1S165.6,33.3,165.6,71.9z M255.9,222.5
	c0,21.1-16.3,37.5-37.5,37.5S181,243.6,181,222.5s16.3-37.5,37.5-37.5C239.6,185,255.9,201.4,255.9,222.5z M230,222.5
	c0-6.7-5.8-12.5-12.5-12.5c-6.7,0-12.5,5.8-12.5,12.5c0,6.7,5.8,12.5,12.5,12.5C224.2,235,230,229.2,230,222.5z M332.8,195.6
	l2.9,5.8c10.6,1,19.2,9.6,19.2,21.1c0,2.9-1,5.8-1.9,8.6l12.5,23.1c2.9,3.8,6.7,3.8,8.6,0l34.6-59.6c2.9-3.8,1-6.7-3.8-6.7h-23.1
	c0,6.7-5.8,12.5-12.5,12.5c-6.7,0-12.5-5.8-12.5-12.5h-20.2C331.8,187.9,329.9,191.8,332.8,195.6z M77.7,164.4
	c0,6.7,5,11.7,11.7,11.7c6.7,0,11.7-5,11.7-11.7s-5-11.7-11.7-11.7C82.7,152.7,77.7,157.7,77.7,164.4z M106.2,299.3
	c0-9.4-7.5-16.8-16.8-16.8s-16.8,7.5-16.8,16.8s7.5,16.8,16.8,16.8S106.2,308.6,106.2,299.3z M265.5,256.1H278
	c0-6.7,5.8-11.5,12.5-11.5c6.7,0,11.5,4.8,12.5,11.5h18.3c1.9,0,4.8-1.9,4.8-4.8v-7.7c-9.6-1.9-17.3-10.6-17.3-21.1
	c0-10.6,7.7-19.2,17.3-21.1v-7.7c0-2.9-1.9-4.8-4.8-4.8H303c0,6.7-5.8,12.5-12.5,12.5c-6.7,0-12.5-5.8-12.5-12.5h-12.5
	c-3.8,0-5.8,2.9-5.8,5.8v56.7C259.8,254.2,262.6,256.1,265.5,256.1z M464.4,242.7c0-6.7-5.8-12.5-12.5-12.5c-1.9,0-3.8,1-5.8,1.9
	c-1.9,1-3.8,1.9-5.8,1.9c-6.7,0-12.5-5.8-12.5-12.5c0-6.7,5.8-12.5,12.5-12.5c1.9,0,3.8,1,5.8,1.9c1.9,1,4.8,1.9,6.7,1.9
	c6.7,0,12.5-5.8,12.5-12.5c0-4.8-2.9-8.6-6.7-10.6c-4.8-2.9-10.6-4.8-17.3-4.8c-21.1,0-37.5,16.3-37.5,37.5s16.3,37.5,37.5,37.5
	c5.8,0,12.5-1.9,17.3-4.8C462.5,253.3,465.4,249.4,464.4,242.7z M177.7,227.7c0,26.7-22.5,49.2-49.2,49.2c-15.8,0-30-7.5-39.2-19.2
	c-9.2,11.7-23.3,19.2-39.2,19.2C22.7,276.9,1,255.2,1,227.7s21.7-49.2,49.2-49.2c10.8,0,21.7,3.3,30,10c5.8,4.2,9.2,10,9.2,10
	s4.2-6.7,9.2-10c8.3-6.7,18.3-10,30-10C156.1,178.5,177.7,200.2,177.7,227.7z M74.4,227.7c0-13.3-10.8-24.2-24.2-24.2
	S26,214.4,26,227.7c0,13.3,10.8,24.2,24.2,24.2C63.5,251.9,74.4,241.1,74.4,227.7z M152.7,227.7c0-13.3-10.8-24.2-24.2-24.2
	s-24.2,10.8-24.2,24.2c0,13.3,10.8,24.2,24.2,24.2S152.7,241.1,152.7,227.7z M259.4,294.4v17.1c0,4-3,7-7,7c-3,0-5-1-6-4
	c-3,2-7,3-10.1,3c-13.1,0-23.1-10.1-23.1-23.1s10.1-23.1,23.1-23.1S259.4,281.3,259.4,294.4z M245.3,294.4c0-5-4-9.1-9.1-9.1
	c-5,0-9.1,4-9.1,9.1s4,9.1,9.1,9.1C241.3,303.5,245.3,299.5,245.3,294.4z M212.1,307.5L195,276.3c-2-2-4-3-6-3h-1h-1c-3,0-5,1-6,3
	l-17.1,31.2c-2,3,0,7,3,9.1c3,2,7,0,9.1-3l11.1-20.1l11.1,20.1c1,4,6,5,9.1,3C211.1,314.5,212.1,310.5,212.1,307.5z M290.1,256.2
	c-4,0-7,3-7,7s3,7,7,7c4,0,7-3,7-7S294.2,256.2,290.1,256.2z M311.7,278.3c0-4-3-7-7-7c-2,0-4,1-5,3l-20.1,19.1v-15.1c0-4-3-7-7-7
	s-7,3-7,7v31.2c0,4,3,7,7,7c2,0,4-1,5-2l20.1-19.1v15.1c0,4,3,7,7,7c4,0,7-3,7-7V278.3z M395.1,294.4c0,13.1-10.1,23.1-23.1,23.1
	c-6,0-12.1-3-16.1-7c-4,4-10.1,7-16.1,7c-13.1,0-23.1-10.1-23.1-23.1s10.1-23.1,23.1-23.1c6,0,12.1,3,16.1,7c4-4,10.1-7,16.1-7
	C385.1,271.3,395.1,281.3,395.1,294.4z M348.9,294.4c0-5-4-9.1-9.1-9.1s-9.1,4-9.1,9.1s4,9.1,9.1,9.1S348.9,299.5,348.9,294.4z
	 M381.1,294.4c0-5-4-9.1-9.1-9.1s-9.1,4-9.1,9.1s4,9.1,9.1,9.1S381.1,299.5,381.1,294.4z"/>
</svg>
